<?xml version="1.0" encoding="utf-8"?>
<!-- Generator: Adobe Illustrator 16.2.1, SVG Export Plug-In . SVG Version: 6.00 Build 0)  -->
<!DOCTYPE svg PUBLIC "-//W3C//DTD SVG 1.1//EN" "http://www.w3.org/Graphics/SVG/1.1/DTD/svg11.dtd">
<svg version="1.1" id="Ebene_1" xmlns="http://www.w3.org/2000/svg" xmlns:xlink="http://www.w3.org/1999/xlink" x="0px" y="0px"
	 width="300px" height="300px" viewBox="0 0 300 300" enable-background="new 0 0 300 300" xml:space="preserve">
<g>
	<defs>
		<rect id="SVGID_1_" x="73.908" y="65.02" width="152.367" height="170.641"/>
	</defs>
	<clipPath id="SVGID_2_">
		<use xlink:href="#SVGID_1_"  overflow="visible"/>
	</clipPath>
	<path clip-path="url(#SVGID_2_)" fill="#A7174F" d="M217.055,235.66H83.132c-1.878,0-3.4-1.522-3.4-3.4v-89.495h-2.423
		c-1.878,0-3.4-1.522-3.4-3.4v-29.029c0-1.878,1.522-3.4,3.4-3.4h12.746c-5.266-5.345-8.208-12.69-8.208-17.649
		c0-4.868,2.185-9.267,6.152-12.386c4.409-3.467,10.728-5.225,18.782-5.225c14.169,0,29.039,14.146,38.279,24.874
		c-3.549-9.107-10.485-20.711-15.508-25.724c-1.329-1.326-1.332-3.479-0.006-4.808c1.327-1.329,3.479-1.333,4.809-0.006
		c5.899,5.886,12.504,17.045,16.398,26.638c3.895-9.594,10.503-20.756,16.404-26.639c1.331-1.326,3.483-1.323,4.809,0.008
		c1.325,1.33,1.322,3.483-0.008,4.809c-5.028,5.012-11.973,16.628-15.52,25.74c9.245-10.73,24.13-24.892,38.291-24.892
		c8.054,0,14.372,1.758,18.779,5.225c3.966,3.119,6.15,7.518,6.15,12.386c0,4.959-2.943,12.304-8.208,17.649h11.427
		c1.878,0,3.4,1.522,3.4,3.4v29.029c0,1.878-1.522,3.4-3.4,3.4h-2.422v89.495C220.455,234.138,218.933,235.66,217.055,235.66z
		 M156.404,228.859h57.25v-86.094h-57.25V228.859z M86.532,228.859h63.072v-86.094H86.532V228.859z M217.171,135.965h2.306v-22.229
		h-63.072v22.228h60.65C217.094,135.963,217.132,135.964,217.171,135.965z M80.708,135.965h2.308
		c0.038-0.001,0.077-0.002,0.116-0.002h66.472v-22.228H80.708V135.965z M156.725,106.936h39.518c5.622,0,9.627-3.597,11.997-6.615
		c3.173-4.041,4.618-8.552,4.618-11.034c0-6.668-6.946-10.811-18.129-10.811C183.377,78.476,168.077,92.155,156.725,106.936z
		 M105.262,106.936h39.521c-11.341-14.781-26.637-28.46-38.002-28.46c-11.186,0-18.134,4.143-18.134,10.811
		c0,2.481,1.446,6.992,4.621,11.034C95.637,103.339,99.642,106.936,105.262,106.936z"/>
</g>
</svg>
